<?xml version="1.0" standalone="no"?>
<!DOCTYPE svg PUBLIC "-//W3C//DTD SVG 20010904//EN"
 "http://www.w3.org/TR/2001/REC-SVG-20010904/DTD/svg10.dtd">
<svg version="1.0" xmlns="http://www.w3.org/2000/svg"
 width="531.000000pt" height="531.000000pt" viewBox="0 0 531.000000 531.000000"
 preserveAspectRatio="xMidYMid meet">
<metadata>
Created by potrace 1.14, written by Peter Selinger 2001-2017
</metadata>
<g transform="translate(0.000000,531.000000) scale(0.100000,-0.100000)"
fill="#000000" stroke="none">
<path d="M3808 4735 c-2 -1 -21 -5 -43 -9 -68 -10 -97 -17 -117 -27 -10 -5
-18 -7 -18 -4 0 3 -13 -1 -30 -10 -16 -9 -30 -13 -30 -11 0 15 -200 -97 -208
-116 -2 -5 -10 -8 -18 -8 -8 0 -14 -4 -14 -10 0 -5 -5 -10 -10 -10 -15 0 -160
-149 -160 -165 0 -8 -34 -45 -41 -45 -4 0 -12 15 -20 33 -7 17 -15 34 -18 37
-4 3 -19 23 -36 45 -16 22 -35 46 -41 52 -7 7 -14 16 -16 20 -5 13 -86 73 -97
73 -6 0 -11 5 -11 10 0 6 -5 10 -11 10 -6 0 -23 8 -37 18 -112 75 -348 97
-517 48 -22 -6 -107 -42 -126 -52 -3 -2 -16 3 -30 10 -40 20 -112 48 -139 52
-14 3 -34 8 -45 11 -20 6 -45 11 -103 18 -18 2 -37 7 -42 10 -6 3 -10 2 -10
-4 0 -6 -9 -8 -22 -3 -20 6 -82 8 -98 2 -3 -1 -25 -3 -50 -5 -25 -2 -61 -6
-80 -10 -19 -4 -39 -8 -45 -9 -5 -1 -14 -4 -20 -7 -5 -3 -19 -5 -30 -5 -11 1
-22 -2 -25 -6 -3 -4 -18 -9 -33 -12 -36 -6 -199 -77 -215 -93 -7 -7 -25 -16
-40 -20 -15 -3 -29 -9 -32 -13 -3 -4 -25 -20 -50 -35 -47 -29 -117 -86 -179
-143 -84 -78 -101 -95 -101 -104 0 -5 -4 -6 -10 -3 -5 3 -10 1 -10 -6 0 -7
-17 -35 -38 -63 -84 -112 -121 -173 -120 -200 0 -5 -5 -12 -12 -16 -6 -4 -13
-20 -16 -35 -3 -16 -9 -34 -14 -40 -27 -32 -44 -259 -27 -355 10 -61 45 -150
59 -150 5 0 7 -4 4 -8 -6 -9 74 -114 113 -149 14 -12 32 -23 39 -23 6 0 12 -5
12 -10 0 -6 25 -22 55 -37 30 -15 55 -32 56 -38 0 -5 3 -19 5 -30 3 -11 6 -26
6 -32 1 -7 5 -13 9 -13 5 0 6 -7 3 -15 -4 -8 -2 -15 3 -15 5 0 10 -6 11 -12 2
-24 8 -43 30 -92 25 -54 28 -81 10 -92 -7 -5 -8 -3 -3 7 7 11 4 11 -11 -1 -10
-8 -35 -23 -54 -33 -58 -30 -107 -84 -114 -127 -1 -3 -4 -10 -8 -15 -13 -20
-3 -140 15 -176 48 -97 133 -148 242 -144 39 1 79 6 90 10 36 15 95 60 95 73
0 6 4 12 8 12 12 0 53 90 47 101 -4 5 -2 9 3 9 10 0 8 72 -3 115 -18 67 -85
142 -142 159 -13 4 -20 13 -18 24 2 9 4 17 5 17 1 0 3 9 5 20 8 58 32 132 80
245 38 92 126 207 220 288 33 28 108 54 157 54 53 -1 130 -37 142 -68 3 -9 6
-332 5 -718 0 -670 -1 -703 -20 -752 -11 -28 -34 -68 -52 -88 -26 -30 -41 -38
-79 -42 -45 -6 -142 17 -150 34 -2 4 -26 24 -54 45 -53 38 -127 120 -119 131
3 3 2 4 -1 2 -3 -2 -19 9 -35 25 -64 63 -183 81 -270 42 -47 -21 -129 -97
-129 -120 0 -7 -4 -13 -8 -13 -11 0 -12 -9 -17 -100 -2 -43 1 -80 7 -87 6 -7
8 -13 4 -13 -13 0 45 -76 76 -101 46 -35 110 -59 161 -59 53 0 127 24 155 50
24 22 42 26 42 8 0 -25 139 -188 161 -188 4 0 14 -6 21 -13 21 -22 103 -67
121 -67 13 0 36 -28 102 -127 73 -109 264 -278 390 -345 33 -17 62 -35 63 -40
2 -4 9 -8 17 -8 7 0 39 -12 71 -26 60 -26 179 -60 244 -69 19 -3 62 -9 95 -14
85 -12 276 -5 370 14 44 9 94 18 110 21 17 3 46 11 66 19 20 8 39 11 43 8 3
-4 6 -1 6 6 0 7 5 9 10 6 6 -3 10 -1 10 6 0 7 3 9 6 6 4 -3 16 -1 28 5 11 7
24 11 29 10 4 -1 7 3 7 9 0 5 4 8 9 4 5 -3 13 0 16 5 4 6 17 15 30 20 12 5 55
30 95 57 41 26 80 53 89 58 23 15 181 174 221 223 l35 42 75 -16 c80 -17 187
-14 250 7 48 15 120 52 120 61 0 5 6 8 13 8 19 0 114 107 137 156 27 55 34 91
33 177 0 67 1 68 46 116 57 60 65 71 69 96 2 11 7 25 11 30 8 11 6 87 -2 122
-20 80 -106 162 -184 177 -16 3 -38 7 -50 10 -13 3 -23 0 -23 -5 0 -6 -6 -7
-17 -1 -17 10 -113 -23 -113 -39 0 -5 -5 -9 -10 -9 -14 0 -66 -52 -62 -62 1
-4 -2 -8 -7 -8 -15 0 -35 -70 -36 -128 -1 -31 5 -68 16 -91 20 -46 95 -131
115 -131 8 0 14 -5 14 -11 0 -5 4 -8 9 -4 5 3 12 1 16 -5 4 -6 10 -8 15 -5 5
3 15 -2 24 -10 20 -20 13 -124 -11 -162 -29 -47 -60 -82 -67 -76 -3 4 -6 1 -6
-5 0 -6 -21 -21 -47 -34 -67 -30 -202 -34 -297 -8 l-69 20 -54 -53 c-29 -28
-62 -56 -73 -61 -11 -5 -20 -13 -20 -18 0 -4 -6 -8 -14 -8 -8 0 -21 -6 -28
-13 -18 -18 -101 -57 -121 -57 -9 0 -17 -4 -17 -8 0 -4 -8 -8 -17 -9 -17 -1
-29 -4 -85 -19 -13 -4 -33 -6 -45 -6 -13 0 -23 -3 -23 -7 0 -3 -24 -7 -53 -8
-28 -2 -56 -3 -62 -3 -59 -2 -191 15 -230 30 -16 6 -32 11 -35 11 -8 -1 -93
30 -135 50 -52 25 -73 38 -113 72 -18 15 -37 27 -42 27 -6 0 -10 7 -10 15 0 8
-4 15 -9 15 -9 0 -55 46 -111 110 -31 35 -108 193 -114 232 l-5 33 19 -23 c10
-12 20 -22 23 -22 3 0 34 -27 68 -61 35 -33 77 -70 93 -82 16 -12 36 -29 45
-37 33 -31 78 -59 85 -53 3 3 6 2 6 -4 0 -6 12 -16 28 -21 15 -6 59 -22 97
-36 108 -41 200 -48 305 -26 113 24 193 76 266 175 36 48 104 160 104 171 0 4
11 22 25 40 14 18 25 38 25 44 0 6 5 8 10 5 6 -3 10 0 10 7 0 21 66 60 140 82
53 16 149 14 194 -3 16 -6 32 -9 35 -5 3 3 7 303 8 667 1 364 3 668 4 675 1 6
6 12 11 12 4 0 8 5 8 10 0 18 45 80 58 80 6 0 12 5 12 11 0 5 5 7 10 4 6 -3
10 -2 10 3 0 5 18 8 40 7 l40 -3 0 48 c0 45 2 49 31 59 73 25 171 -2 233 -64
79 -79 182 -301 189 -407 1 -10 4 -18 7 -18 3 0 6 -17 8 -38 6 -67 8 -77 16
-90 4 -7 2 -12 -4 -12 -6 0 -9 -4 -5 -9 3 -6 -4 -15 -15 -21 -11 -6 -20 -8
-20 -5 0 2 -23 -9 -50 -26 -58 -36 -101 -100 -103 -156 -1 -21 -6 -41 -12 -45
-7 -5 -7 -8 0 -8 6 0 9 -15 9 -32 -1 -18 3 -39 9 -45 5 -7 7 -13 3 -13 -4 0 1
-12 11 -27 18 -31 102 -113 112 -111 3 1 19 -4 34 -10 39 -16 144 -9 192 13
22 10 53 33 68 49 127 137 96 324 -65 404 l-57 29 25 46 c13 26 21 47 17 47
-5 0 -3 4 3 8 14 9 69 127 96 207 12 33 26 63 32 67 6 4 8 8 4 8 -3 0 4 27 17
60 13 33 22 60 20 60 -2 0 3 16 11 35 8 19 12 35 9 35 -2 0 0 12 6 28 11 28
17 62 23 123 2 20 6 41 9 46 7 11 1 289 -7 323 -6 27 -12 56 -22 108 -3 17
-10 32 -14 32 -5 0 -6 9 -3 20 3 11 0 20 -6 20 -6 0 -11 7 -11 16 0 21 -77
181 -104 216 -12 14 -32 41 -46 59 -47 62 -157 163 -195 181 -14 6 -25 14 -25
18 0 4 -15 13 -32 20 -18 8 -41 20 -50 28 -10 8 -18 12 -18 8 0 -4 -13 2 -30
14 -16 12 -30 19 -30 17 0 -3 -28 4 -62 15 -58 19 -94 27 -140 31 -10 1 -18 4
-18 7 0 6 -265 11 -272 5z m257 -150 c38 -7 67 -13 73 -14 1 -1 5 -2 10 -2 4
-1 30 -10 57 -19 28 -9 52 -18 55 -18 16 -2 47 -18 58 -29 8 -7 18 -11 23 -8
5 4 9 2 9 -2 0 -5 15 -17 33 -26 19 -10 45 -28 58 -40 13 -12 39 -34 57 -49
17 -15 28 -30 22 -33 -5 -3 -10 -2 -10 3 0 7 -39 31 -60 37 -3 1 -30 13 -60
28 -61 29 -170 69 -170 61 0 -3 -8 0 -19 5 -17 9 -53 16 -131 26 -14 2 -25 4
-25 5 0 1 -53 3 -117 4 -65 1 -118 -1 -118 -4 0 -3 -15 -7 -32 -8 -36 -3 -157
-31 -173 -40 -5 -4 -14 -7 -20 -8 -19 -3 -130 -58 -133 -66 -2 -4 -10 -8 -18
-8 -8 0 -14 -4 -14 -10 0 -5 -5 -10 -11 -10 -13 0 -75 -45 -111 -81 -14 -15
-29 -25 -32 -21 -3 3 -6 1 -6 -4 0 -6 -7 -19 -16 -30 -8 -10 -6 -1 6 22 25 46
164 186 226 225 45 30 127 69 144 69 6 0 36 9 68 19 31 11 84 23 117 26 33 4
61 9 63 10 6 5 155 -2 197 -10z m-2195 -28 c14 -1 30 -5 35 -8 6 -3 25 -6 44
-8 18 -1 42 -6 52 -12 11 -5 19 -7 19 -4 0 24 247 -141 249 -167 1 -7 -60 22
-69 33 -10 12 -135 57 -210 75 -78 19 -290 26 -360 12 -19 -4 -52 -10 -72 -13
-21 -4 -61 -16 -90 -27 -29 -11 -63 -22 -75 -25 -13 -3 -23 -10 -23 -15 0 -5
-6 -8 -12 -6 -7 3 -19 -1 -26 -9 -8 -7 -18 -11 -23 -8 -5 4 -9 2 -9 -2 0 -5
-12 -14 -27 -21 -115 -49 -300 -210 -383 -332 -13 -19 -27 -37 -30 -40 -8 -7
-84 -133 -86 -142 -1 -5 -3 -11 -4 -15 -1 -5 -2 -11 -1 -15 0 -5 -4 -8 -10 -8
-5 0 -7 -4 -4 -10 3 -5 2 -10 -3 -10 -5 0 -9 -6 -10 -12 -2 -24 -35 -139 -38
-135 -16 15 8 216 26 227 5 3 11 15 13 25 2 11 9 30 15 43 7 12 9 22 5 22 -4
0 -3 4 3 8 5 4 17 23 26 42 16 34 29 52 75 108 13 15 23 31 23 35 0 5 5 5 10
2 6 -3 10 -2 10 4 0 17 132 146 180 176 25 15 47 31 50 34 10 13 103 70 155
95 130 63 211 86 350 102 27 3 50 6 52 7 2 3 137 -2 173 -6z m613 -10 c4 7 62
9 62 3 0 -1 18 -3 40 -4 76 -5 169 -35 187 -60 4 -6 8 -7 8 -3 0 8 15 -3 56
-40 13 -12 24 -20 24 -17 0 7 16 -10 53 -54 29 -36 38 -68 10 -35 -18 20 -52
38 -65 35 -5 -1 -8 2 -8 7 0 5 -10 12 -22 16 -13 4 -25 8 -28 9 -3 1 -15 7
-27 14 -13 7 -23 10 -23 6 0 -3 -6 -2 -12 4 -7 5 -26 13 -43 16 -16 3 -41 9
-55 12 -44 10 -175 12 -218 4 -39 -7 -43 -5 -72 28 -26 31 -28 37 -15 45 9 5
23 6 31 3 8 -3 14 -2 14 3 0 5 11 7 24 6 13 -2 29 1 37 5 7 5 19 5 25 -1 7 -6
15 -6 17 -2z m-668 -291 c33 -23 64 -56 65 -70 0 -5 -7 -3 -15 4 -8 7 -15 8
-15 3 0 -5 -9 -9 -20 -9 -11 0 -20 4 -20 9 0 4 -6 5 -12 0 -7 -4 -22 -8 -33
-9 -11 -1 -40 -7 -65 -14 -25 -7 -50 -14 -57 -16 -26 -5 -166 -79 -188 -100
-14 -13 -25 -20 -25 -17 0 3 -23 -20 -51 -51 -29 -31 -58 -56 -65 -56 -6 0
-17 14 -23 31 -9 26 -13 29 -31 19 -11 -6 -31 -28 -44 -48 -13 -20 -38 -51
-54 -69 -16 -17 -27 -34 -24 -37 3 -3 1 -6 -5 -6 -9 0 -24 -33 -22 -48 0 -2
-6 -9 -14 -15 -21 -17 -97 -202 -104 -253 -3 -24 -10 -41 -14 -38 -5 3 -7 9
-4 14 3 5 8 33 10 63 9 95 82 290 127 338 7 8 25 32 40 54 15 22 47 61 70 86
44 47 168 139 187 139 6 0 11 4 11 8 0 5 16 14 35 22 19 8 35 17 35 20 0 4 6
7 13 7 6 1 36 10 65 21 28 11 52 18 52 15 0 -3 7 0 15 7 8 7 15 10 15 7 0 -3
21 1 48 7 54 14 75 11 117 -18z m2452 10 c68 -18 155 -69 211 -123 25 -23 49
-43 54 -43 4 0 8 -5 8 -10 0 -6 15 -32 33 -58 36 -53 81 -143 91 -184 5 -21 2
-30 -15 -38 -28 -16 -41 -9 -64 36 -11 22 -28 48 -37 58 -10 10 -15 23 -12 28
3 4 -2 11 -10 14 -9 3 -16 11 -16 16 0 11 -123 138 -133 138 -6 0 -29 17 -61
45 -16 15 -95 52 -138 65 -63 19 -228 3 -228 -22 0 -5 -5 -8 -12 -8 -6 0 -34
-18 -60 -41 -27 -23 -51 -39 -53 -37 -9 9 96 108 137 129 94 48 207 61 305 35z
m-1906 -636 c35 0 71 1 79 1 136 2 886 -4 895 -7 10 -4 12 -34 5 -54 -1 -3 -1
-15 0 -27 1 -13 -4 -23 -12 -24 -7 0 -56 -1 -108 -2 -52 -1 -94 -5 -92 -9 1
-5 2 -40 2 -79 l0 -70 45 4 c30 2 49 -1 56 -10 6 -7 18 -13 26 -13 8 0 12 -4
9 -9 -3 -5 0 -11 7 -14 21 -8 69 -115 71 -158 1 -21 -1 -36 -4 -34 -4 2 -7 -2
-7 -10 0 -8 3 -15 7 -15 4 0 7 -7 7 -15 0 -8 -5 -15 -11 -15 -7 0 -8 -3 -1 -8
14 -9 13 -95 0 -104 -6 -5 -5 -11 3 -17 8 -4 14 -12 14 -16 0 -4 -6 -12 -14
-16 -7 -5 -8 -9 -2 -9 13 0 13 -92 -1 -102 -6 -5 -5 -11 3 -17 17 -11 17 -21
0 -32 -7 -5 -8 -9 -2 -9 13 0 13 -92 -1 -102 -6 -5 -5 -11 3 -17 17 -11 17
-21 0 -32 -7 -5 -8 -9 -3 -9 6 0 10 -45 10 -114 0 -90 -3 -112 -12 -104 -7 6
-13 17 -13 24 0 8 -5 14 -11 14 -5 0 -7 5 -4 10 3 6 1 10 -4 10 -6 0 -11 9
-11 19 0 11 -4 21 -9 23 -4 2 -36 55 -71 118 -34 63 -67 121 -72 128 -6 6 -7
12 -4 12 6 0 -2 11 -31 45 -7 7 -13 16 -13 19 0 3 -20 40 -45 82 -25 41 -45
78 -45 80 0 2 -11 22 -25 44 -14 22 -22 40 -18 40 5 0 3 4 -3 8 -13 9 -84 129
-84 143 0 5 -4 9 -10 9 -5 0 -10 7 -10 15 0 8 -3 15 -8 15 -4 0 -15 18 -25 40
-9 22 -22 40 -29 40 -6 0 -8 3 -5 6 7 7 -29 76 -78 154 -16 25 -28 49 -27 53
1 5 -2 6 -8 2 -5 -3 -10 -1 -10 5 0 7 -6 8 -18 1 -13 -7 -23 -6 -30 1 -7 7
-12 8 -12 2 0 -5 -77 -9 -190 -9 -120 0 -190 4 -190 10 0 6 -4 4 -9 -3 -4 -8
-12 -14 -16 -14 -4 0 -12 6 -16 14 -6 8 -9 9 -9 1 0 -9 -18 -11 -40 -3 -3 1
-21 1 -40 0 -87 -5 -120 -4 -120 2 0 4 -10 4 -22 0 -46 -16 -58 -5 -58 53 l0
54 191 0 c105 0 193 2 196 5 3 3 9 3 13 1 4 -3 36 -5 71 -5z m-44 -650 c52
-97 97 -175 102 -180 10 -9 30 -44 46 -80 9 -19 19 -37 23 -40 4 -3 21 -32 37
-65 17 -33 33 -62 36 -65 3 -3 9 -12 12 -20 4 -8 21 -37 37 -65 17 -27 33 -58
36 -67 4 -10 11 -18 16 -18 5 0 6 -4 3 -10 -3 -5 -1 -10 4 -10 6 0 11 -4 11
-10 0 -5 15 -33 33 -62 18 -29 41 -71 51 -93 10 -22 35 -67 55 -100 65 -104
154 -258 188 -322 18 -35 48 -88 68 -118 19 -31 35 -59 35 -64 0 -14 -81 -49
-136 -58 -77 -14 -140 -8 -209 21 -16 7 -45 19 -62 26 -18 7 -33 17 -33 23 0
6 -3 7 -6 4 -7 -6 -91 50 -125 82 -138 134 -195 183 -229 201 l-40 21 2 129
c2 72 -1 130 -5 130 -5 0 -5 5 -2 11 10 15 11 149 2 149 -5 0 -6 4 -2 9 3 6 6
168 6 362 0 194 4 348 8 343 5 -5 22 -34 38 -64z m-1268 -332 c27 -48 -8 -100
-56 -84 -26 9 -41 47 -30 79 5 15 13 25 17 22 5 -3 11 -1 14 4 10 16 41 5 55
-21z m3540 -11 c13 -33 7 -50 -22 -67 -38 -21 -73 0 -75 46 -2 62 76 79 97 21z
m-3525 -718 c-2 -4 3 -12 11 -19 43 -36 -25 -109 -70 -76 -26 18 -27 73 -2 91
20 14 70 18 61 4z m833 -166 c4 -49 2 -68 -11 -88 -9 -14 -13 -25 -9 -25 5 -1
-17 -13 -47 -27 -46 -23 -69 -27 -140 -27 -83 -1 -220 27 -220 44 0 10 20 8
38 -3 7 -5 12 -3 12 5 0 9 3 10 8 2 10 -17 95 -5 162 23 14 6 28 10 31 9 13
-3 101 103 126 152 l27 54 8 -28 c5 -16 11 -57 15 -91z"/>
<path d="M3618 1690 c-20 -10 -39 -16 -41 -13 -9 8 -102 -94 -125 -137 -12
-23 -21 -44 -19 -46 2 -2 24 7 50 21 104 52 201 58 307 18 8 -4 18 -6 22 -5 3
1 12 -5 18 -13 21 -25 39 -18 36 15 -1 16 -5 33 -9 36 -4 4 -7 15 -7 24 0 19
-55 82 -86 98 -39 21 -106 22 -146 2z"/>
</g>
</svg>
